<svg xmlns="http://www.w3.org/2000/svg" viewBox="0 0 325.96 325.97"><defs><style>.cls-1{fill:#ee384e;}</style></defs><g id="Layer_2" data-name="Layer 2"><g id="Layer_1-2" data-name="Layer 1"><path class="cls-1" d="M325.93,190.5q0-35.22,0-70.42a120.77,120.77,0,0,0-22.25-69.39C282.25,20.13,245.93.62,208.54.06,146.64-.08,84.75.1,22.85,0c-3.94,0-8-.26-11.77,1A17,17,0,0,0,.88,11.63C-.39,16,.11,20.52,0,25Q.15,167,.17,309.05c-.26,9.13,8,17.24,17.13,16.86q93.95.15,187.87.06a120.31,120.31,0,0,0,67.13-20.23c28.09-18.59,47.71-49.43,52.35-82.82C326.31,212.19,325.88,201.32,325.93,190.5ZM255.1,161c-23.17,28.5-60.15,45-96.86,43.38a120,120,0,0,1-83-38.24c-2.85-3.26-6.88-6.6-6.34-11.4.19-5.36,5.53-7.87,9.31-10.63,4.35-2.69,8.12-6.55,13.06-8.19,4.25-1.07,8,1.74,10.5,4.87,18.6,20.78,48.2,30.88,75.63,25.79a82.81,82.81,0,0,0,47.11-26.09c2-2.21,4.38-4.57,7.57-4.71,3.93-.46,7,2.41,10.07,4.43,3.83,2.86,8,5.35,11.71,8.36A9,9,0,0,1,255.1,161Z"/></g></g></svg>