<svg xmlns="http://www.w3.org/2000/svg" viewBox="0 0 146.33 146.36"><defs><style>.cls-1{fill:#fff;}.cls-2{fill:#ee384e;}</style></defs><g id="Layer_2" data-name="Layer 2"><g id="Layer_1-2" data-name="Layer 1"><path class="cls-1" d="M114.53,72.29a53.62,53.62,0,0,1-80.74,2.3c-1.28-1.46-3.09-3-2.85-5.11.08-2.41,2.48-3.54,4.18-4.78,2-1.2,3.64-2.94,5.86-3.67,1.91-.48,3.59.78,4.72,2.18a37.19,37.19,0,0,0,55.1-.13A5.15,5.15,0,0,1,104.19,61c1.77-.21,3.15,1.08,4.52,2,1.72,1.29,3.6,2.41,5.26,3.76A4,4,0,0,1,114.53,72.29Z"/><path class="cls-2" d="M146.32,85.53V53.92a54,54,0,0,0-9-29.77c-.29-.46-.61-.92-.93-1.38A54,54,0,0,0,93.63,0C65.84,0,38.05.06,10.27,0A16.48,16.48,0,0,0,5,.46,7.66,7.66,0,0,0,.4,5.23c-.57,2-.34,4-.39,6Q0,17.7,0,24.15q0,55,.07,110v4.65a7.59,7.59,0,0,0,7.69,7.57q42.17.06,84.33,0a54,54,0,0,0,30.14-9.09,50.76,50.76,0,0,0,4.28-3.16,54.4,54.4,0,0,0,17.8-27.24,50.72,50.72,0,0,0,1.42-6.78C146.5,95.27,146.3,90.39,146.32,85.53ZM35.12,64.7c2-1.2,3.64-2.94,5.86-3.67,1.91-.48,3.59.78,4.72,2.18a37.19,37.19,0,0,0,55.1-.13A5.15,5.15,0,0,1,104.19,61c1.77-.21,3.15,1.08,4.52,2,1.72,1.29,3.6,2.41,5.26,3.76a4,4,0,0,1,.56,5.58,53.62,53.62,0,0,1-80.74,2.3c-1.28-1.46-3.09-3-2.85-5.11C31,67.07,33.42,65.94,35.12,64.7Z"/></g></g></svg>