<svg xmlns="http://www.w3.org/2000/svg" viewBox="0 0 716.79 186.06"><defs><style>.cls-1{fill:#ee384e;}</style></defs><g id="Layer_2" data-name="Layer 2"><g id="Layer_1-2" data-name="Layer 1"><path class="cls-1" d="M107.72,8c-.09-2.11,0-4.57-1.63-6.14C104.26-.19,101.28.21,98.82.09,94,.2,89.11-.2,84.31.43,81.45,1,80,4.11,80.23,6.84c-.06,10.33,0,20.67,0,31-13.53.07-27.05-.06-40.57,0A40.55,40.55,0,0,0,0,78.51c0,9.32-.09,18.63.06,27.95.37,16,11.33,31.09,26.4,36.47,9.56,3.73,20,2.24,30,2.53,5-.19,10.05.56,14.95-.48,3.76-2.59,5.87-6.91,8.71-10.39.2,3.63-.64,8.93,3.76,10.47,6.08.86,12.31.36,18.45.31,3.27,0,5.69-3.18,5.36-6.31C107.74,95.39,107.64,51.71,107.72,8ZM80.22,118c-13.17,0-26.32.06-39.48,0a13.08,13.08,0,0,1-11.94-7.36c-1.81-3.74-1.24-8-1.34-12,.14-7.06-.17-14.12.11-21.17a13,13,0,0,1,13.1-12.11c13.18-.09,26.36,0,39.55,0Q80.25,91.65,80.22,118Z"/><path class="cls-1" d="M128.13.6C134-.37,140,.23,145.88.17c2.8-.23,5.75,1.71,6.06,4.61A133.6,133.6,0,0,1,152,19.35a5.37,5.37,0,0,1-4.9,5.35c-5.67.28-11.35.22-17,0a5.39,5.39,0,0,1-5.38-5.4c-.23-4.53-.22-9.08,0-13.61A5.44,5.44,0,0,1,128.13.6Z"/><path class="cls-1" d="M297.09.63c5.8-1,11.8-.37,17.68-.47,2.84-.26,5.89,1.63,6.22,4.61a130.22,130.22,0,0,1,.1,14.52A5.41,5.41,0,0,1,316,24.72c-5.64.24-11.31.23-17,0a5.39,5.39,0,0,1-5.23-5.46q-.33-6.76,0-13.55A5.45,5.45,0,0,1,297.09.63Z"/><path class="cls-1" d="M338.05,6.92c-.3-2.91,1.38-6.24,4.52-6.6a161.13,161.13,0,0,1,18-.06c3.3.16,5.25,3.6,4.93,6.66q0,40.3,0,80.62,17.52-23,35.05-46.05c1.4-1.88,3.23-3.83,5.83-3.6,7.81-.11,15.64-.13,23.47,0,3.54-.5,5.52,4.16,3,6.55-12,15.86-24.08,31.6-36.1,47.43,11.86,15.63,23.81,31.19,35.63,46.84,2.44,2.21,1,6.81-2.45,6.64-7.88.22-15.76.1-23.62,0-3.31.35-5.33-2.54-7.07-4.84-11.11-14.91-22.66-29.5-33.7-44.45-.05,14.27,0,28.54,0,42.8.28,3-1.82,6.26-5,6.4-5.59.28-11.2.2-16.79.06-3.46.15-6-3.2-5.63-6.49q0-66,0-132Z"/><path class="cls-1" d="M567.71.77c6.08-1.35,12.5-.5,18.72-.58,3.56-.21,6.11,3.3,5.69,6.67q0,66,0,132.07c.27,2.95-1.68,6.1-4.79,6.37-5.91.3-11.86.28-17.77,0-3.17-.22-5.19-3.45-4.87-6.45-.06-43.6,0-87.21,0-130.81-.11-2.71.3-6,3.08-7.28Z"/><path class="cls-1" d="M127.25,38.68c5.9-1.9,12.45-.59,18.61-.88a5.72,5.72,0,0,1,6.22,6c.09,31.73,0,63.46,0,95.18.27,3.07-1.89,6.36-5.16,6.42-5.61.24-11.24.21-16.85,0-3.31.08-5.76-3.15-5.43-6.32-.09-31,0-62,0-92.92-.05-2.66,0-5.94,2.63-7.45Z"/><path class="cls-1" d="M271.08,37.94a159.43,159.43,0,0,0-17.76.18c-4.86,1-4.36,6.87-4.38,10.6-2.74-3.4-4.87-7.42-8.31-10.17-5-1.44-10.27-.42-15.36-.69-9.55.28-19.45-1.09-28.64,2.15A40.58,40.58,0,0,0,171,66.26c-2.72,8.3-1.69,17.15-1.87,25.73.17,7.78-.72,15.73,1.36,23.34,4.16,16.61,19.84,29.4,37,30.05,14,.24,28.1,0,42.16.11-.59,6.43-5.38,12.59-12.13,13-11.53.27-23.08,0-34.61.07-1.74.08-3.59-.13-5.2.63a4,4,0,0,0-1,6.11c3.64,5.24,7.75,10.16,11.47,15.36,1.84,2.27,3.61,5.54,7,5.33,7.48.18,15,.09,22.48,0a40.57,40.57,0,0,0,32.77-18.71,41,41,0,0,0,6.37-22.76q0-49.78,0-99.54C277.22,41.53,274.83,37.72,271.08,37.94ZM249.26,118c-13.23,0-26.47.08-39.71,0a13.06,13.06,0,0,1-11.73-7.41c-1.75-3.71-1.23-7.92-1.31-11.88.15-7-.15-14.11.12-21.15a13,13,0,0,1,12.92-12.17c13.24-.1,26.48,0,39.71,0Q249.31,91.66,249.26,118Z"/><path class="cls-1" d="M296.15,38.79c2.52-1.54,5.68-.89,8.52-1.06,4.05.1,8.14-.25,12.19.28,3.17.51,4.58,4,4.32,6.84,0,31.39,0,62.78,0,94.17.32,3-1.92,6.25-5.12,6.33-4.53.28-9.06.1-13.59.14-2.4-.12-5.28.27-7.05-1.71-1.73-1.52-1.64-4-1.69-6.05q0-46.42,0-92.83c-.08-2.26.38-4.82,2.45-6.11Z"/><path class="cls-1" d="M547.78,138.87c0-31.69.08-63.4,0-95.1a5.65,5.65,0,0,0-6.06-5.89c-18.29-.13-36.58,0-54.87-.06-4.53,0-9.1-.12-13.56.72a40.48,40.48,0,0,0-28.6,21.25c-3.82,7.05-4.87,15.22-4.55,23.15.32,9.65-.68,19.41.66,29a40.6,40.6,0,0,0,26.3,31.15c9.92,3.65,20.65,2,31,2.35,4.52-.26,9.3.74,13.66-.72,3.41-2.82,5.59-6.79,8.31-10.22a51.06,51.06,0,0,0,.3,6.53A5.51,5.51,0,0,0,526,145.4c5.61.1,11.23.21,16.84-.08C546,145.14,548.08,141.88,547.78,138.87ZM481.34,118a13.25,13.25,0,0,1-11.91-6.41c-2.39-3.87-1.78-8.6-1.87-12.93.16-7.09-.2-14.2.14-21.28a12.93,12.93,0,0,1,12.44-12c13.38-.17,26.78,0,40.18-.07q0,26.34,0,52.68C507.34,118,494.34,118,481.34,118Z"/><path class="cls-1" d="M716.79,46c-.06-2.28.08-5-1.8-6.61s-4.42-1.52-6.65-1.61c-16.42.06-32.84,0-49.25,0-5.67,0-11.39-.32-17,.72a40.59,40.59,0,0,0-28.89,22c-3.31,6.53-4.38,14-4.15,21.22.23,9.32-.39,18.67.34,28,1.84,18.2,17.49,33.7,35.69,35.41,9.84.63,19.72.08,29.57.31,2.71-.17,6.12.53,8.08-1.89,2.58-2.83,4.69-6,7-9.09a47.18,47.18,0,0,0,.3,6.61,5.54,5.54,0,0,0,5.82,4.29c5.25.1,10.52.2,15.79-.07,3.21-.1,5.36-3.34,5.09-6.37C716.8,108,716.71,77,716.79,46Zm-27.5,72c-13,0-26.11,0-39.16,0a13.27,13.27,0,0,1-11.41-5.87c-2.75-3.94-2.1-9-2.19-13.51.16-7.08-.2-14.17.13-21.24a12.85,12.85,0,0,1,8-11c2.78-1.17,5.84-1,8.79-1,11.95.06,23.88,0,35.83,0Q689.31,91.64,689.29,118Z"/></g></g></svg>